<?xml version="1.0" encoding="UTF-8" standalone="no"?>
<!-- Created with Inkscape (http://www.inkscape.org/) -->

<svg
   version="1.1"
   id="svg2"
   width="260.16132"
   height="143.89732"
   viewBox="0 0 260.16132 143.89732"
   sodipodi:docname="RegSize copy (1).ai"
   xmlns:inkscape="http://www.inkscape.org/namespaces/inkscape"
   xmlns:sodipodi="http://sodipodi.sourceforge.net/DTD/sodipodi-0.dtd"
   xmlns="http://www.w3.org/2000/svg"
   xmlns:svg="http://www.w3.org/2000/svg">
  <defs
     id="defs6">
    <clipPath
       clipPathUnits="userSpaceOnUse"
       id="clipPath16">
      <path
         d="M 0,107.923 H 195.121 V 0 H 0 Z"
         id="path14" />
    </clipPath>
    <clipPath
       clipPathUnits="userSpaceOnUse"
       id="clipPath68">
      <path
         d="M 0,0 H 195.121 V 107.923 H 0 Z"
         id="path66" />
    </clipPath>
  </defs>
  <sodipodi:namedview
     id="namedview4"
     pagecolor="#ffffff"
     bordercolor="#000000"
     borderopacity="0.25"
     inkscape:showpageshadow="2"
     inkscape:pageopacity="0.0"
     inkscape:pagecheckerboard="0"
     inkscape:deskcolor="#d1d1d1" />
  <g
     id="g8"
     inkscape:groupmode="layer"
     inkscape:label="RegSize copy (1)"
     transform="matrix(1.3333333,0,0,-1.3333333,0,143.89733)">
    <g
       id="g10">
      <g
         id="g12"
         clip-path="url(#clipPath16)">
        <g
           id="g18"
           transform="translate(13.125,15.0781)">
          <path
             d="m 0,0 c -0.997,-0.783 -2.249,-1.195 -3.388,-1.195 -3.303,0 -5.467,2.619 -5.467,5.381 0,2.761 2.164,5.381 5.467,5.381 1.139,0 2.349,-0.384 3.288,-1.153 L -0.583,7.531 c -0.77,0.712 -1.78,1.068 -2.805,1.068 -2.506,0 -4.385,-1.994 -4.385,-4.413 0,-2.42 1.879,-4.414 4.385,-4.414 0.911,0 1.993,0.385 2.847,1.054 z"
             style="fill:#231f20;fill-opacity:1;fill-rule:nonzero;stroke:none"
             id="path20" />
        </g>
        <g
           id="g22"
           transform="translate(16.6133,14.8223)">
          <path
             d="M 0,0 C 1.125,0 1.937,0.911 1.937,1.993 1.937,3.075 1.125,3.986 0,3.986 -1.125,3.986 -1.936,3.075 -1.936,1.993 -1.936,0.911 -1.125,0 0,0 m 0,4.84 c 1.637,0 2.848,-1.381 2.848,-2.847 0,-1.467 -1.211,-2.847 -2.848,-2.847 -1.637,0 -2.847,1.38 -2.847,2.847 0,1.466 1.21,2.847 2.847,2.847"
             style="fill:#231f20;fill-opacity:1;fill-rule:nonzero;stroke:none"
             id="path24" />
        </g>
        <g
           id="g26"
           transform="translate(24.8711,14.4805)">
          <path
             d="m 0,0 c -0.626,-0.342 -1.281,-0.513 -1.793,-0.513 -1.638,0 -2.848,1.381 -2.848,2.848 0,1.466 1.21,2.847 2.848,2.847 0.526,0 1.138,-0.1 1.793,-0.498 l -0.171,-0.84 c -0.455,0.27 -1.011,0.484 -1.622,0.484 -1.125,0 -1.937,-0.911 -1.937,-1.993 0,-1.082 0.812,-1.993 1.937,-1.993 0.541,0 1.067,0.184 1.622,0.526 z"
             style="fill:#231f20;fill-opacity:1;fill-rule:nonzero;stroke:none"
             id="path28" />
        </g>
        <g
           id="g30"
           transform="translate(26.8359,24.5596)">
          <path
             d="M 0,0 V -7.531 L 2.15,-4.982 2.862,-5.51 0.939,-7.744 3.089,-10.122 2.25,-10.592 0,-8.001 v -2.335 l -0.911,-0.17 v 10.335 z"
             style="fill:#231f20;fill-opacity:1;fill-rule:nonzero;stroke:none"
             id="path32" />
        </g>
        <g
           id="g34"
           transform="translate(32.4741,14.167)">
          <path
             d="m 0,0 c -0.114,-0.014 -0.213,-0.028 -0.313,-0.028 -1.111,0 -1.495,0.555 -1.495,1.338 v 3.217 h -0.37 l 0.099,0.797 h 0.271 v 1.751 l 0.911,0.157 V 5.324 h 1.21 V 4.527 h -1.21 V 1.381 c 0,-0.384 0.185,-0.612 0.698,-0.612 0.171,0 0.284,0.014 0.37,0.029 z"
             style="fill:#231f20;fill-opacity:1;fill-rule:nonzero;stroke:none"
             id="path36" />
        </g>
        <g
           id="g38"
           transform="translate(35.1221,14.8223)">
          <path
             d="M 0,0 C 0.769,0 1.125,0.697 1.125,1.139 1.125,1.58 0.769,2.277 0,2.277 -0.769,2.277 -1.125,1.58 -1.125,1.139 -1.125,0.697 -0.769,0 0,0 m 1.267,-0.214 c -0.413,-0.455 -0.868,-0.64 -1.352,-0.64 -1.153,0 -1.894,1.067 -1.894,1.978 0,1.097 0.869,2.008 1.879,2.008 0.484,0 0.969,-0.214 1.196,-0.47 h 0.029 v 0.513 c 0,0.569 -0.356,0.868 -1.082,0.868 -0.299,0 -0.555,-0.028 -0.783,-0.057 l 0.199,0.783 C -0.37,4.826 -0.1,4.84 0.228,4.84 1.595,4.84 1.979,4.114 1.979,3.175 v -3.774 l -0.712,-0.17 z"
             style="fill:#231f20;fill-opacity:1;fill-rule:nonzero;stroke:none"
             id="path40" />
        </g>
        <g
           id="g42"
           transform="translate(38.5815,19.4063)">
          <path
             d="M 0,0 0.911,0.171 V -5.183 L 0,-5.353 Z m 1.196,2.106 -0.74,-0.74 -0.741,0.74 0.741,0.742 z"
             style="fill:#231f20;fill-opacity:1;fill-rule:nonzero;stroke:none"
             id="path44" />
        </g>
        <g
           id="g46"
           transform="translate(41.8848,24.5596)">
          <path
             d="m 0,0 v -10.336 l -0.911,-0.17 v 10.335 z"
             style="fill:#231f20;fill-opacity:1;fill-rule:nonzero;stroke:none"
             id="path48" />
        </g>
        <g
           id="g50"
           transform="translate(55.3525,15.0781)">
          <path
             d="m 0,0 c -0.997,-0.783 -2.249,-1.195 -3.388,-1.195 -3.303,0 -5.467,2.619 -5.467,5.381 0,2.761 2.164,5.381 5.467,5.381 1.139,0 2.349,-0.384 3.288,-1.153 L -0.583,7.531 c -0.77,0.712 -1.78,1.068 -2.805,1.068 -2.506,0 -4.385,-1.994 -4.385,-4.413 0,-2.42 1.879,-4.414 4.385,-4.414 0.911,0 1.993,0.385 2.847,1.054 z"
             style="fill:#231f20;fill-opacity:1;fill-rule:nonzero;stroke:none"
             id="path52" />
        </g>
        <g
           id="g54"
           transform="translate(58.8423,16.957)">
          <path
             d="M 0,0 C 1.125,0 1.936,0.911 1.936,1.993 1.936,3.075 1.125,3.986 0,3.986 -1.125,3.986 -1.936,3.075 -1.936,1.993 -1.936,0.911 -1.125,0 0,0 m 0,4.84 c 1.637,0 2.847,-1.381 2.847,-2.847 0,-1.467 -1.21,-2.847 -2.847,-2.847 -1.637,0 -2.847,1.38 -2.847,2.847 0,1.466 1.21,2.847 2.847,2.847"
             style="fill:#231f20;fill-opacity:1;fill-rule:nonzero;stroke:none"
             id="path56" />
        </g>
        <g
           id="g58"
           transform="translate(58.2544,14.6689)">
          <path
             d="M 0,0 0.777,0.778 1.555,0.001 0.777,-0.777 Z"
             style="fill:#231f20;fill-opacity:1;fill-rule:nonzero;stroke:none"
             id="path60" />
        </g>
      </g>
    </g>
    <g
       id="g62">
      <g
         id="g64"
         clip-path="url(#clipPath68)">
        <g
           id="g70"
           transform="translate(4.2021,62.6533)">
          <path
             d="M 0,0 V 37.447 H 16.489 V 7.234 h 8.405 V 0 Z"
             style="fill:#efd01c;fill-opacity:1;fill-rule:nonzero;stroke:none"
             id="path72" />
        </g>
        <g
           id="g74"
           transform="translate(32.0163,75.0269)">
          <path
             d="m 0,0 c 0,7.341 5.479,13.298 12.873,13.298 7.446,0 12.925,-6.223 12.925,-13.457 L 0,-0.159 Z"
             style="fill:#efd01c;fill-opacity:1;fill-rule:nonzero;stroke:none"
             id="path76" />
        </g>
        <path
           d="M 61.707,88.345 H 71.814 V 62.547 H 61.707 Z"
           style="fill:#efd01c;fill-opacity:1;fill-rule:nonzero;stroke:none"
           id="path78" />
        <g
           id="g80"
           transform="translate(80.5903,77.3877)">
          <path
             d="m 0,0 c 0.958,5.851 6.437,10.958 12.447,10.958 h 0.851 V -3.139 c 0,-0.213 -0.053,-0.478 -0.106,-0.691 C 12.288,-9.681 6.809,-14.841 0.745,-14.841 h -0.851 v 14.096 c 0,0.266 0.053,0.479 0.106,0.745"
             style="fill:#efd01c;fill-opacity:1;fill-rule:nonzero;stroke:none"
             id="path82" />
        </g>
        <g
           id="g84"
           transform="translate(117.9326,88.292)">
          <path
             d="m 0,0 v -23.777 c -1.542,-1.277 -3.404,-2.021 -5.426,-2.021 -3.883,0 -7.553,2.5 -10,5.372 V 0 Z"
             style="fill:#efd01c;fill-opacity:1;fill-rule:nonzero;stroke:none"
             id="path86" />
        </g>
        <path
           d="m 129.105,88.345 h 10.106 V 62.547 h -10.106 z"
           style="fill:#efd01c;fill-opacity:1;fill-rule:nonzero;stroke:none"
           id="path88" />
        <g
           id="g90"
           transform="translate(153.0957,74.9404)">
          <path
             d="m 0,0 c 0,7.341 5.479,13.298 12.873,13.298 7.446,0 12.925,-6.223 12.925,-13.457 L 0,-0.159 Z"
             style="fill:#efd01c;fill-opacity:1;fill-rule:nonzero;stroke:none"
             id="path92" />
        </g>
        <g
           id="g94"
           transform="translate(4.1064,62.5498)">
          <path
             d="M 0,0 V 7.447 H 0.106 V 37.554 H 0.638 V 7.447 H 1.702 V 37.554 H 2.234 V 7.447 H 3.298 V 37.554 H 3.83 V 7.447 H 4.894 V 37.554 H 5.425 V 7.447 H 6.489 V 37.554 H 7.021 V 7.447 H 8.085 V 37.554 H 8.617 V 7.447 h 1.064 v 30.107 h 0.532 V 7.447 h 1.063 v 30.107 h 0.533 V 7.447 h 1.064 v 30.107 h 0.531 V 7.447 h 1.064 V 37.554 H 15 V 7.447 h 1.064 v 30.107 h 0.532 V 7.447 h 8.51 V 0 Z"
             style="fill:#bc3f26;fill-opacity:1;fill-rule:nonzero;stroke:none"
             id="path96" />
        </g>
        <g
           id="g98"
           transform="translate(44.8003,74.7842)">
          <path
             d="m 0,0 v -12.234 c -7.128,0 -12.926,5.797 -12.926,12.925 0,7.128 5.798,12.873 12.873,12.873 V 13.298 C 1.395,13.261 3.081,13.245 4.464,12.766 H -0.053 V 11.702 H 6.596 L 7.382,11.17 H -0.053 V 10.106 H 8.724 L 9.255,9.574 H -0.053 V 8.511 H 10.16 L 10.585,7.979 H -0.053 V 6.915 H 11.17 L 11.467,6.458 -0.053,6.383 V 5.319 H 11.954 L 12.181,4.787 H -0.053 V 3.723 H 12.514 L 12.65,3.191 H -0.053 V 2.127 H 12.841 L 12.913,1.596 H -0.053 V 0.532 H 12.993 L 13.058,0 Z"
             style="fill:#bc3f26;fill-opacity:1;fill-rule:nonzero;stroke:none"
             id="path100" />
        </g>
        <path
           d="m 71.292,88.348 h 0.532 V 62.55 h -0.532 z m -1.596,0 h 0.532 V 62.55 h -0.532 z m -1.595,0 h 0.532 V 62.55 h -0.532 z m -1.596,0 h 0.532 V 62.55 h -0.532 z m -1.596,0 h 0.532 V 62.55 h -0.532 z m -1.596,0 h 0.532 V 62.55 h -0.532 z m -1.596,0 h 0.532 V 62.55 h -0.532 z m 5.001,1.862 c -2.979,0 -5.373,2.394 -5.373,5.372 0,2.979 2.394,5.373 5.373,5.373 2.978,0 5.372,-2.394 5.372,-5.373 0,-2.978 -2.394,-5.372 -5.372,-5.372"
           style="fill:#bc3f26;fill-opacity:1;fill-rule:nonzero;stroke:none"
           id="path102" />
        <g
           id="g104"
           transform="translate(93.8989,78.7202)">
          <path
             d="M 0,0 C 0,-2.447 0.053,-4.734 -0.532,-7.128 V 0 l -1.064,0.266 v -9.787 l -0.531,-0.798 V 0.425 C -2.5,0.638 -2.872,0.851 -3.245,1.064 v -12.766 l -0.531,-0.586 V 1.542 C -4.202,1.968 -4.574,2.447 -4.84,2.979 v -16.277 l -0.532,-0.319 V 8.617 L -4.84,8.83 V 7.766 c 0.904,1.809 2.819,2.979 4.84,2.979 2.979,0 5.374,-2.394 5.374,-5.372 C 5.374,2.394 2.979,0 0,0 M -6.968,-14.628 V 7.819 l 0.532,0.266 v -22.447 z m -1.064,1.436 v -1.968 l -0.531,-0.213 v 0.798 c -0.958,-1.649 -2.767,-2.713 -4.682,-2.713 -2.978,0 -5.372,2.394 -5.372,5.373 0,2.926 2.341,5.319 5.266,5.373 0,2.446 -0.053,4.733 0.532,7.127 v -7.127 l 1.064,-0.213 v 9.734 l 0.532,0.798 V -6.915 c 0.372,-0.16 0.744,-0.372 1.063,-0.585 V 5.16 l 0.533,0.585 V -7.926 c 0.425,-0.425 0.797,-0.851 1.064,-1.329 v 16.01 l 0.531,0.32 v -17.713 c 0,-0.426 0.16,-0.852 0.16,-1.277 0,-0.425 -0.16,-0.851 -0.16,-1.277"
             style="fill:#bc3f26;fill-opacity:1;fill-rule:nonzero;stroke:none"
             id="path106" />
        </g>
        <path
           d="m 116.933,88.348 h 7.394 V 62.55 h -7.394 z m -1.703,-25.32 v 25.32 h 0.533 v -25.16 z m -1.595,-0.478 v 25.798 h 0.532 V 62.656 Z m -1.596,25.798 h 0.532 V 62.55 h -0.532 z m -1.596,-25.532 v 25.532 h 0.533 V 62.709 Z m -1.595,0.372 v 25.16 h 0.532 V 63.082 Z m -1.596,0.691 v 24.469 h 0.532 V 63.614 Z m -1.596,1.011 v 23.458 h 0.532 v -23.83 z m -1.595,1.383 v 22.075 h 0.532 V 65.741 Z m -1.596,1.649 v 20.426 h 0.531 V 67.23 Z"
           style="fill:#bc3f26;fill-opacity:1;fill-rule:nonzero;stroke:none"
           id="path108" />
        <g
           id="g110"
           transform="translate(145.3398,77.603)">
          <path
             d="m 0,0 c -2.979,0 -5.373,2.394 -5.373,5.373 0,2.978 2.394,5.372 5.373,5.372 2.979,0 5.372,-2.394 5.372,-5.372 C 5.372,2.394 2.979,0 0,0 m -6.649,10.745 h 0.532 v -25.798 h -0.532 z m -1.596,0 h 0.532 v -25.798 h -0.532 z m -1.596,0 h 0.532 v -25.798 h -0.532 z m -1.596,0 h 0.532 v -25.798 h -0.532 z m -1.595,0 h 0.532 v -25.798 h -0.532 z m -1.596,0 h 0.531 v -25.798 h -0.531 z m -1.596,0 h 0.531 v -25.798 h -0.531 z"
             style="fill:#bc3f26;fill-opacity:1;fill-rule:nonzero;stroke:none"
             id="path112" />
        </g>
        <g
           id="g114"
           transform="translate(166.0332,74.7842)">
          <path
             d="m 0,0 v -12.234 c -7.128,0 -12.926,5.797 -12.926,12.925 0,7.128 5.798,12.873 12.872,12.873 v -0.266 c 1.437,0 2.767,-0.053 4.15,-0.532 h -4.15 v -1.064 h 6.65 L 7.341,11.17 H -0.054 V 10.106 H 8.724 L 9.256,9.574 h -9.31 V 8.511 H 10.159 L 10.585,7.979 H -0.054 V 6.915 H 11.17 L 11.543,6.383 H -0.054 V 5.319 H 11.915 L 12.181,4.787 H -0.054 V 3.723 H 12.447 L 12.606,3.191 H -0.054 V 2.127 H 12.713 L 12.819,1.596 H -0.054 V 0.532 H 12.872 V 0 Z"
             style="fill:#bc3f26;fill-opacity:1;fill-rule:nonzero;stroke:none"
             id="path116" />
        </g>
        <g
           id="g118"
           transform="translate(73.6461,41.9853)">
          <path
             d="M 0,0 H -6.702 V 7.287 H 21.49 V 0 H 14.894 V -30.213 H 0 Z"
             style="fill:#efd01c;fill-opacity:1;fill-rule:nonzero;stroke:none"
             id="path120" />
        </g>
        <path
           d="m 99.21,37.494 h 10.106 V 11.696 H 99.21 Z"
           style="fill:#efd01c;fill-opacity:1;fill-rule:nonzero;stroke:none"
           id="path122" />
        <g
           id="g124"
           transform="translate(121.2579,11.6707)">
          <path
             d="m 0,0 v 23.777 c 1.543,1.277 3.404,2.021 5.426,2.021 2.393,0 4.734,-0.957 6.702,-2.34 1.756,1.436 3.83,2.394 6.17,2.394 3.884,0 7.447,-2.554 9.894,-5.426 V 0 Z"
             style="fill:#efd01c;fill-opacity:1;fill-rule:nonzero;stroke:none"
             id="path126" />
        </g>
        <g
           id="g128"
           transform="translate(153.4348,24.1405)">
          <path
             d="m 0,0 c 0,7.341 5.479,13.298 12.872,13.298 7.447,0 12.926,-6.223 12.926,-13.457 L 0,-0.159 Z"
             style="fill:#efd01c;fill-opacity:1;fill-rule:nonzero;stroke:none"
             id="path130" />
        </g>
        <g
           id="g132"
           transform="translate(88.5698,41.8516)">
          <path
             d="M 0,0 V -30.16 H -0.532 V 0 H -1.596 V -30.16 H -2.127 V 0 H -3.191 V -30.16 H -3.723 V 0 H -4.787 V -30.16 H -5.319 V 0 H -6.383 V -30.16 H -6.915 V 0 H -7.979 V -30.16 H -8.511 V 0 h -1.064 v -30.16 h -0.531 V 0 h -1.064 v -30.16 h -0.532 V 0 h -1.064 v -30.16 h -0.532 V 0 h -1.064 v -30.16 h -0.532 V 0 h -6.808 V 7.446 H 6.596 L 6.596,0 Z"
             style="fill:#bc3f26;fill-opacity:1;fill-rule:nonzero;stroke:none"
             id="path134" />
        </g>
        <path
           d="m 108.838,37.489 h 0.532 V 11.691 h -0.532 z m -1.596,0 h 0.532 V 11.691 h -0.532 z m -1.596,0 h 0.532 V 11.691 h -0.532 z m -1.595,0 h 0.532 V 11.691 h -0.532 z m -1.596,0 h 0.532 V 11.691 h -0.532 z m -1.596,0 h 0.531 V 11.691 h -0.531 z m -1.595,0 h 0.531 V 11.691 h -0.531 z m 5,1.863 c -2.979,0 -5.373,2.393 -5.373,5.372 0,2.978 2.394,5.372 5.373,5.372 2.978,0 5.372,-2.394 5.372,-5.372 0,-2.979 -2.394,-5.372 -5.372,-5.372"
           style="fill:#bc3f26;fill-opacity:1;fill-rule:nonzero;stroke:none"
           id="path136" />
        <g
           id="g138"
           transform="translate(148.9453,11.6914)">
          <path
             d="M 0,0 V 21.117 L 0.532,20.426 V 0 Z m -1.596,0 v 22.606 l 0.533,-0.531 V 0 Z m -1.595,0 v 23.83 l 0.532,-0.372 V 0 Z m -1.596,0 v 24.734 l 0.531,-0.265 V 0 Z M -6.383,0 V 25.267 L -5.852,25.16 V 0 Z m -1.596,0 v 25.639 l 0.532,-0.107 V 0 Z m -1.595,25.798 h 0.531 V 0 H -9.574 Z M -11.17,0 v 25.691 l 0.531,0.107 V 0 Z m -1.597,0 v 25.16 l 0.533,0.159 V 0 Z m -1.595,0 v 22.606 l 0.532,-0.531 V 0 Z m -1.596,0 v 23.83 l 0.532,-0.372 V 0 Z m -1.596,0 v 24.734 l 0.533,-0.265 V 0 Z m -1.595,0 v 25.267 l 0.532,-0.107 V 0 Z m -1.596,0 v 25.639 l 0.532,-0.107 V 0 Z m -1.596,25.798 h 0.532 V 0 h -0.532 z M -23.937,0 v 25.691 l 0.533,0.107 V 0 Z m -1.595,0 V 25.16 L -25,25.319 V 0 Z m -8.458,25.798 h 7.395 V 0 h -7.395 z"
             style="fill:#bc3f26;fill-opacity:1;fill-rule:nonzero;stroke:none"
             id="path140" />
        </g>
        <g
           id="g142"
           transform="translate(166.2363,23.9258)">
          <path
             d="m 0,0 v -12.234 c -7.128,0 -12.926,5.797 -12.926,12.925 0,7.128 5.798,12.872 12.873,12.872 v -0.265 c 1.436,0 2.766,-0.053 4.149,-0.532 H -0.053 V 11.702 H 6.596 L 7.341,11.17 H -0.053 V 10.106 H 8.724 L 9.256,9.574 H -0.053 V 8.511 H 10.16 L 10.585,7.979 H -0.053 V 6.915 H 11.17 L 11.543,6.383 H -0.053 V 5.319 H 11.915 L 12.181,4.787 H -0.053 V 3.724 h 12.5 L 12.606,3.191 H -0.053 V 2.128 H 12.713 L 12.819,1.596 H -0.053 V 0.531 H 12.872 V 0 Z"
             style="fill:#bc3f26;fill-opacity:1;fill-rule:nonzero;stroke:none"
             id="path144" />
        </g>
      </g>
    </g>
  </g>
</svg>
